<svg width="32" height="32" viewBox="0 0 32 32" fill="none" xmlns="http://www.w3.org/2000/svg">
<g clip-path="url(#clip0_32_57)">
<path d="M8.69867 5.95689C11.654 8.1756 14.8329 12.6742 16 15.0884C17.1672 12.6744 20.3459 8.17556 23.3013 5.95689C25.4338 4.35596 28.8889 3.11725 28.8889 7.05889C28.8889 7.84609 28.4376 13.6718 28.1728 14.6176C27.2527 17.9057 23.8998 18.7444 20.9173 18.2368C26.1306 19.1241 27.4568 22.0631 24.5927 25.0021C19.1532 30.5839 16.7745 23.6016 16.1647 21.8125C16.053 21.4845 16.0007 21.3311 15.9999 21.4616C15.9992 21.3311 15.9469 21.4845 15.8351 21.8125C15.2256 23.6016 12.847 30.5841 7.40714 25.0021C4.54296 22.0631 5.86914 19.1239 11.0826 18.2368C8.09998 18.7444 4.74701 17.9057 3.82701 14.6176C3.56229 13.6717 3.11096 7.846 3.11096 7.05889C3.11096 3.11725 6.56616 4.35596 8.69852 5.95689H8.69867Z" fill="#242424"/>
</g>
<defs>
<clipPath id="clip0_32_57">
<rect width="26.6667" height="23.5556" fill="white" transform="translate(2.66663 4)"/>
</clipPath>
</defs>
</svg>
