<svg width="32" height="32" viewBox="0 0 32 32" fill="none" xmlns="http://www.w3.org/2000/svg">
<path d="M6.14327 4.14846C4.98008 4.83911 2.68836 7.47186 2.66663 8.1623V9.30516C2.66663 10.7539 4.02077 12.0271 5.25025 12.0271C6.72655 12.0271 7.95657 10.8036 7.95668 9.35146C7.95668 10.8036 9.14455 12.0271 10.6209 12.0271C12.0975 12.0271 13.2472 10.8036 13.2472 9.35146C13.2472 10.8036 14.5102 12.0271 15.9866 12.0271H16.0134C17.4899 12.0271 18.753 10.8036 18.753 9.35146C18.753 10.8036 19.9028 12.0271 21.3791 12.0271C22.8555 12.0271 24.0433 10.8036 24.0433 9.35146C24.0433 10.8036 25.2736 12.0271 26.7498 12.0271C27.9793 12.0271 29.3334 10.7541 29.3334 9.30516V8.1623C29.3117 7.47175 27.02 4.83889 25.857 4.14846C22.2417 4.02152 19.7353 3.99957 15.9999 4.00011C12.2646 4.00043 7.17213 4.0588 6.14305 4.14846H6.14327ZM13.2285 11.3449C13.0873 11.5909 12.9125 11.8161 12.709 12.0138C12.1517 12.5587 11.3878 12.8965 10.5456 12.8965C9.73525 12.8972 8.95689 12.5801 8.37771 12.0133C8.17578 11.8155 8.02233 11.604 7.8818 11.3578L7.88115 11.3582C7.74074 11.6049 7.54512 11.8163 7.34276 12.0143C6.76336 12.5807 5.98508 12.8975 5.17483 12.8968C5.07332 12.8968 4.96769 12.8687 4.88226 12.8394C4.76359 14.0753 4.71349 15.2564 4.69577 16.1176L4.69555 16.1225C4.69338 16.5598 4.69121 16.9194 4.68903 17.419C4.71186 20.0121 4.43222 25.8236 5.83234 27.2515C8.002 27.7574 11.9944 27.9878 15.9998 27.9893H16.0004C20.0057 27.9878 23.9981 27.7574 26.1678 27.2515C27.5679 25.8235 27.2883 20.012 27.3111 17.4189C27.3087 16.9194 27.3068 16.5598 27.3046 16.1224L27.3043 16.1175C27.2867 15.2561 27.2365 14.0751 27.1179 12.8392C27.0325 12.8685 26.9269 12.8966 26.8253 12.8966C26.0151 12.8973 25.2368 12.5805 24.6574 12.0141C24.455 11.8161 24.2594 11.6048 24.1189 11.358L24.1182 11.3576C23.9776 11.6038 23.8242 11.8154 23.6223 12.0131C23.0432 12.5799 22.2648 12.8969 21.4545 12.8961C20.6125 12.8961 19.8484 12.5581 19.2911 12.0133C19.0877 11.8156 18.9128 11.5905 18.7717 11.3444C18.632 11.5902 18.4588 11.8154 18.257 12.0133C17.6776 12.58 16.8992 12.897 16.0888 12.8962C16.0595 12.8962 16.0301 12.8949 16.0008 12.8941H16C15.9707 12.8949 15.9413 12.8962 15.9117 12.8962C15.1013 12.8971 14.3229 12.5801 13.7435 12.0134C13.5417 11.8155 13.3685 11.5903 13.2288 11.3445L13.2285 11.3449ZM11.0021 14.2238L11.0019 14.2248H11.0035C11.8852 14.2267 12.6685 14.2248 13.639 15.284C14.4028 15.2039 15.2009 15.1639 15.9997 15.1651H16.0003C16.7991 15.164 17.5973 15.2039 18.3612 15.284C19.3317 14.2247 20.1149 14.2266 20.9966 14.2248H20.9982L20.9979 14.2238C21.4145 14.2238 23.0809 14.2238 24.242 17.4849L25.4892 21.9587C26.4134 25.2868 25.1933 25.3682 23.6713 25.3712C21.4143 25.2872 20.1646 23.6481 20.1646 22.0092C18.9152 22.2139 17.4577 22.3163 16.0002 22.3164H15.9996C14.542 22.3164 13.0845 22.2139 11.8352 22.0092C11.8352 23.6481 10.5854 25.2872 8.32847 25.3712C6.80653 25.3682 5.5865 25.2869 6.51071 21.9587L7.75824 17.485C8.91936 14.2239 10.5857 14.2239 11.0023 14.2239L11.0021 14.2238ZM15.9997 16.7866V16.7873C15.9975 16.7894 13.6236 18.9695 13.1969 19.745L14.7514 19.6827V21.0384C14.7514 21.1018 15.3752 21.076 15.9997 21.0471H16.0003C16.6246 21.076 17.2485 21.1018 17.2485 21.0384V19.6827L18.8031 19.745C18.3762 18.9695 16.0002 16.7873 16.0002 16.7873V16.7866L15.9999 16.7868L15.9997 16.7866Z" fill="#242424"/>
</svg>
